<svg width="515" height="191" viewBox="0 0 515 191" fill="none" xmlns="http://www.w3.org/2000/svg">
<path d="M234.816 170.811L243.118 148.822L251.517 170.811H234.816ZM267.212 184.355L249.798 139.923C248.404 136.383 246.101 134.759 243.15 134.759C240.394 134.759 238.059 136.253 236.729 139.631L219.25 184.388C218.31 186.824 219.575 189.422 222.007 190.267C224.439 191.209 227.098 190.721 228.039 188.285L231.476 179.841H254.922L258.457 188.285C259.397 190.721 262.056 191.566 264.488 190.624C266.921 189.779 268.185 186.791 267.245 184.355" fill="#FFFFFF"/>
<path d="M71.408 170.811L79.7097 148.822L88.1087 170.811H71.408ZM103.772 184.355L86.3576 139.923C84.9632 136.383 82.6607 134.759 79.6773 134.759C76.9208 134.759 74.586 136.253 73.2564 139.631L55.7773 184.388C54.8369 186.824 56.1016 189.422 58.5338 190.267C60.9659 191.209 63.6251 190.721 64.5655 188.285L68.003 179.841H91.4489L94.9836 188.285C95.9241 190.721 98.5832 191.566 101.015 190.624C103.448 189.779 104.712 186.791 103.772 184.355Z" fill="#FFFFFF"/>
<path d="M110.679 57.1644H137.335C139.67 57.1644 141.584 54.9233 141.584 52.5523C141.584 50.1813 139.703 48.1026 137.271 48.1026H114.765V4.64461C114.765 2.04623 112.819 0 110.225 0C107.631 0 105.75 2.04623 105.75 4.64461V50.5061C105.75 53.3318 108.052 57.1969 110.712 57.1969" fill="#FFFFFF"/>
<path d="M127.153 129.497H116.03V110.139H127.153C135.065 110.139 139.93 113.127 139.93 119.785C139.93 126.866 135.001 129.497 127.153 129.497ZM149.269 119.071C149.269 107.606 141.13 101.077 128.32 101.077H112.333C109.674 101.077 107.015 103.188 107.015 106.014V151.875C107.015 154.474 108.896 156.52 111.49 156.52C114.084 156.52 116.03 154.474 116.03 151.875V137.227H128.093L138.276 153.857C140.06 156.78 142.654 157.04 144.924 155.611C147.032 154.279 147.972 151.778 146.189 148.887L138.049 135.766C145.118 133.102 149.269 127.223 149.269 119.038" fill="#FFFFFF"/>
<path d="M510.687 115.271H484.776V101.077H509.422C511.79 101.077 513.67 98.9659 513.67 96.5949C513.67 94.2239 511.79 92.0477 509.422 92.0477H484.776V77.854H510.687C513.119 77.854 515 75.7753 515 73.4043C515 71.0333 513.119 68.7922 510.784 68.7922H480.528C477.869 68.7922 474.497 70.2213 474.497 73.047V118.194C474.497 121.02 477.869 123.033 480.528 123.033H510.784C513.152 123.033 515 121.442 515 119.071C515 116.7 513.119 115.271 510.687 115.271Z" fill="#FFFFFF"/>
<path d="M32.0071 68.7922H4.79945C2.14029 68.7922 0 70.2863 0 73.112V118.909C0 121.507 1.88086 123.553 4.47516 123.553C7.06945 123.553 9.01518 121.507 9.01518 118.909V101.077H30.2884C33.434 101.077 34.9257 98.9659 34.9257 96.5949C34.9257 94.2239 33.434 92.0477 30.2884 92.0477H9.01518V77.854H31.9423C35.1527 77.854 36.6444 75.7753 36.6444 73.4043C36.6444 71.0333 35.1527 68.7922 32.0071 68.7922Z" fill="#FFFFFF"/>
<path d="M339.399 137.227L347.7 115.238L356.099 137.227H339.399ZM354.381 105.884C352.986 102.344 350.684 100.687 347.733 100.687C344.976 100.687 342.642 102.181 341.312 105.559L323.833 150.316C322.892 152.752 324.157 155.351 326.589 156.195C329.021 157.137 331.681 156.228 332.621 153.792L336.058 144.957H359.504L363.039 153.792C363.98 156.228 366.639 157.267 369.071 156.325C371.503 155.448 372.768 152.817 371.827 150.381L354.413 105.852L354.381 105.884Z" fill="#FFFFFF"/>
<path d="M71.3755 115.466C60.5444 115.466 52.8588 106.891 52.8588 95.588C52.8588 84.285 60.5444 75.8728 71.3755 75.8728C82.2067 75.8728 89.6329 84.5124 89.6329 95.588C89.6329 106.664 81.9473 115.466 71.3755 115.466ZM71.0837 67.2332C55.3233 67.2332 43.3247 79.5755 43.3247 95.588C43.3247 111.601 55.3233 124.008 71.0837 124.008C86.844 124.008 99.0696 111.763 99.0696 95.588C99.0696 79.4131 86.844 67.2332 71.0837 67.2332Z" fill="#FFFFFF"/>
<path d="M394.852 115.271H382.918V101.077H395.176C401.694 101.077 407.012 102.181 407.012 107.833C407.012 114.037 401.759 115.271 394.852 115.271ZM382.918 77.854H393.846C400.365 77.854 405.618 78.9908 405.618 84.8047C405.618 90.6186 400.689 92.0802 394.333 92.0802H382.95V77.8865L382.918 77.854ZM408.893 94.4837C413.368 91.2682 415.087 87.2407 415.087 83.0183C415.087 72.9496 407.337 68.7922 396.181 68.7922H378.216C375.557 68.7922 372.573 70.2863 372.573 73.112V118.194C372.573 121.02 375.524 123.033 378.216 123.033H397.511C408.958 123.033 416.417 117.122 416.417 107.476C416.417 102.539 414.212 97.7966 408.893 94.4837Z" fill="#FFFFFF"/>
<path d="M286.475 148.855H281.059V110.106H286.41C298.182 110.106 308.364 114.134 308.364 129.107C308.364 144.08 298.182 148.822 286.475 148.822M288.194 101.077H275.968C273.309 101.077 270.747 103.188 270.747 106.014V151.161C270.747 153.987 273.309 156.585 275.968 156.585H288.194C303.014 156.585 317.898 149.342 317.898 128.458C317.898 107.573 303.014 101.045 288.194 101.045" fill="#FFFFFF"/>
<path d="M460.714 115.271H438.339V72.3325C438.339 69.7341 436.36 67.6879 433.799 67.6879C431.237 67.6879 429.323 69.7341 429.323 72.3325V118.194C429.323 121.02 431.464 123.033 434.123 123.033H460.779C463.147 123.033 465.027 121.442 465.027 119.071C465.027 116.7 463.147 115.271 460.714 115.271Z" fill="#FFFFFF"/>
<path d="M165.321 35.2406L173.623 13.2518L182.022 35.2406H165.321ZM188.93 53.1045C189.87 55.5404 192.529 56.5798 194.961 55.6379C197.393 54.7609 198.658 52.1301 197.718 49.6941L180.304 5.19677C178.909 1.68895 176.607 0 173.656 0C170.899 0 168.564 1.49407 167.235 4.87197L149.756 49.6291C148.815 52.0651 150.08 54.6635 152.512 55.508C154.944 56.4499 157.603 55.508 158.544 53.1045L161.981 44.2375H185.427L188.962 53.1045H188.93Z" fill="#FFFFFF"/>
<path d="M209.489 100.687C207.219 100.687 205.371 101.564 203.879 104.52L189.059 133.589L174.239 104.52C172.748 101.532 170.737 100.687 168.435 100.687C165.159 100.687 162.403 102.896 162.403 107.118V151.421C162.403 154.799 164.349 156.52 166.943 156.52C169.537 156.52 171.418 154.799 171.418 151.421V119.85L183.936 143.008C184.941 144.957 186.595 145.997 188.962 145.997C191.329 145.997 192.821 144.99 193.826 143.106L206.214 119.85V151.421C206.214 154.799 208.192 156.52 210.754 156.52C213.316 156.52 215.229 154.799 215.229 151.421V107.118C215.229 102.863 212.7 100.687 209.424 100.687" fill="#FFFFFF"/>
<path d="M258.684 115.271H247.528V76.5224H257.808C260.175 76.5224 262.056 74.2813 262.056 71.9102C262.056 69.5392 260.175 67.4605 257.743 67.4605H228.59C226.255 67.4605 224.374 69.7016 224.374 72.0726C224.374 74.4437 226.255 76.5224 228.687 76.5224H238.545V115.271H227.682C225.315 115.271 223.434 116.862 223.434 119.233C223.434 121.604 225.315 123.033 227.747 123.033H242.891C242.891 123.033 242.891 123.033 242.923 123.033C242.956 123.033 242.923 123.033 242.956 123.033H258.813C261.148 123.033 263.062 121.442 263.062 119.071C263.062 116.7 261.181 115.271 258.749 115.271" fill="#FFFFFF"/>
</svg>
